<svg width="140" height="49" viewBox="0 0 140 49" fill="none" xmlns="http://www.w3.org/2000/svg">
<ellipse cx="134.411" cy="44.1994" rx="4.8641" ry="4.8006" fill="#00dbe9"/>
<path d="M23.5618 12.7497C24.1752 13.2675 25.0973 13.2752 25.6686 12.7124L30.485 7.96779C31.0563 7.40497 31.0585 6.48687 30.458 5.95439C21.5325 -1.96093 9.64068 -1.69644 3.54695 5.03939C0.501469 8.40577 -1.09361 13.6475 0.850599 18.6759C2.8716 23.9028 8.10028 27.4422 15.7121 28.715C21.1642 29.6266 22.2043 31.6541 22.4508 32.4897C22.8309 33.7784 22.3892 35.7129 21.1311 37.2649C19.3445 39.469 13.3058 41.1469 8.86541 36.028C8.34043 35.4228 7.43821 35.2445 6.77105 35.693L1.14687 39.474C0.479713 39.9225 0.304408 40.8246 0.798724 41.4544C9.19279 52.1499 23.052 50.2644 28.7275 43.2628C31.3607 40.0144 33.2963 34.9079 31.7911 29.8058C30.1524 24.2506 25.0444 20.5373 17.337 19.2486C11.7893 18.321 10.3167 16.2282 9.93952 15.2528C9.4856 14.0788 9.79562 12.5481 10.8036 11.434C12.4668 9.5955 17.9042 7.97374 23.5618 12.7497Z" fill="#2D3034"/>
<path d="M77.9719 0.863077C77.1646 0.863077 76.5102 1.50892 76.5102 2.30561V47.4266C76.5102 48.2233 77.1646 48.8691 77.9719 48.8691H84.7982C85.6055 48.8691 86.2598 48.2233 86.2598 47.4266V2.30561C86.2598 1.50892 85.6054 0.863077 84.7982 0.863077H77.9719Z" fill="#2D3034"/>
<path fill-rule="evenodd" clip-rule="evenodd" d="M117.643 46.2033V47.4266C117.643 48.2233 118.297 48.8691 119.105 48.8691H125.91C126.717 48.8691 127.371 48.2233 127.371 47.4266V29.6667L127.371 29.6382L127.371 29.6227C127.371 29.6051 127.371 29.5875 127.371 29.5698C127.371 18.9646 118.66 10.3674 107.915 10.3674C97.1693 10.3674 88.4584 18.9646 88.4584 29.5698C88.4584 40.175 97.1693 48.7722 107.915 48.7722C111.459 48.7722 114.781 47.8371 117.643 46.2033ZM117.643 29.7173C117.643 24.4147 113.288 20.1161 107.915 20.1161C102.542 20.1161 98.1866 24.4147 98.1866 29.7173C98.1866 35.0199 102.542 39.3185 107.915 39.3185C113.288 39.3185 117.643 35.0199 117.643 29.7173Z" fill="#2D3034"/>
<path fill-rule="evenodd" clip-rule="evenodd" d="M53.9732 48.8691C59.1042 48.8691 63.7713 46.9089 67.2476 43.7058C67.8773 43.1255 67.7797 42.1367 67.0905 41.6265L61.5925 37.5569C61.0256 37.1373 60.2419 37.1896 59.6678 37.5994C58.067 38.742 56.0998 39.4155 53.9732 39.4155C51.2542 39.4155 48.7957 38.3146 47.0305 36.5398C46.2447 35.7497 46.9115 34.5642 48.0333 34.5642H70.6656C70.6675 34.5642 70.6691 34.5627 70.6691 34.5608C70.6691 34.5598 70.6696 34.5588 70.6703 34.5582C70.6709 34.5577 70.6717 34.5573 70.6726 34.5573H71.8681C72.413 34.5573 72.8933 34.1954 73.0063 33.6693C73.2836 32.3783 73.4296 31.0393 73.4296 29.6667C73.4296 19.0615 64.7186 10.4643 53.9732 10.4643C43.2277 10.4643 34.5168 19.0615 34.5168 29.6667C34.5168 40.2719 43.2277 48.8691 53.9732 48.8691ZM62.2215 24.7213C62.7591 25.5677 62.0625 26.5632 61.0503 26.5632H46.8961C45.8839 26.5632 45.1872 25.5677 45.7249 24.7213C47.445 22.0135 50.496 20.213 53.9732 20.213C57.4503 20.213 60.5014 22.0135 62.2215 24.7213Z" fill="#2D3034"/>
<path d="M118.304 12.2721C118.304 11.6082 118.849 11.07 119.522 11.07H126.219C126.892 11.07 127.437 11.6082 127.437 12.2721V40.5218C127.437 41.1857 126.892 41.7239 126.219 41.7239H119.522C118.849 41.7239 118.304 41.1857 118.304 40.5218V12.2721Z" fill="#2D3034"/>
</svg>
